<svg width="29" height="30" viewBox="0 0 29 30" fill="none" xmlns="http://www.w3.org/2000/svg">
<circle cx="14.3948" cy="14.9294" r="13.6249" stroke="#F53838" stroke-width="0.939651"/>
<path d="M18.5058 14.3419H11.5406L13.6724 11.7814C13.7721 11.6615 13.8201 11.5068 13.8058 11.3516C13.7914 11.1963 13.716 11.053 13.5961 10.9533C13.4762 10.8536 13.3215 10.8057 13.1662 10.82C13.0109 10.8343 12.8677 10.9097 12.768 11.0297L9.83161 14.5534C9.81185 14.5814 9.79419 14.6108 9.77875 14.6415C9.77875 14.6708 9.77875 14.6884 9.73764 14.7178C9.71102 14.7851 9.69709 14.8568 9.69653 14.9292C9.69709 15.0016 9.71102 15.0733 9.73764 15.1407C9.73764 15.17 9.73764 15.1876 9.77875 15.217C9.79419 15.2476 9.81185 15.2771 9.83161 15.3051L12.768 18.8288C12.8232 18.8951 12.8924 18.9484 12.9705 18.9849C13.0487 19.0215 13.1339 19.0403 13.2202 19.0402C13.3574 19.0405 13.4904 18.9927 13.5961 18.9051C13.6556 18.8558 13.7047 18.7953 13.7407 18.727C13.7768 18.6586 13.799 18.5839 13.8061 18.5069C13.8132 18.43 13.805 18.3525 13.7821 18.2787C13.7591 18.2049 13.7219 18.1364 13.6724 18.0771L11.5406 15.5165H18.5058C18.6615 15.5165 18.8109 15.4546 18.921 15.3445C19.0312 15.2344 19.093 15.085 19.093 14.9292C19.093 14.7735 19.0312 14.6241 18.921 14.514C18.8109 14.4038 18.6615 14.3419 18.5058 14.3419Z" fill="#F53838"/>
</svg>
