<svg width="70" height="71" viewBox="0 0 70 71" fill="none" xmlns="http://www.w3.org/2000/svg">
<g filter="url(#filter0_d_740_109)">
<circle cx="34.981" cy="28.9294" r="14.0948" fill="#F53838"/>
<circle cx="34.981" cy="28.9294" r="13.6249" stroke="#F53838" stroke-width="0.939651"/>
</g>
<path d="M30.8705 28.3419H37.8356L35.7038 25.7814C35.6041 25.6615 35.5561 25.5068 35.5705 25.3516C35.5848 25.1963 35.6602 25.053 35.7801 24.9533C35.9001 24.8536 36.0547 24.8057 36.21 24.82C36.3653 24.8343 36.5085 24.9097 36.6082 25.0297L39.5446 28.5534C39.5644 28.5814 39.582 28.6108 39.5975 28.6415C39.5975 28.6708 39.5975 28.6884 39.6386 28.7178C39.6652 28.7851 39.6791 28.8568 39.6797 28.9292C39.6791 29.0016 39.6652 29.0733 39.6386 29.1407C39.6386 29.17 39.6386 29.1876 39.5975 29.217C39.582 29.2476 39.5644 29.2771 39.5446 29.3051L36.6082 32.8288C36.553 32.8951 36.4838 32.9484 36.4057 32.9849C36.3275 33.0215 36.2423 33.0403 36.156 33.0402C36.0188 33.0405 35.8858 32.9927 35.7801 32.9051C35.7207 32.8558 35.6715 32.7953 35.6355 32.727C35.5994 32.6586 35.5773 32.5839 35.5702 32.5069C35.5631 32.43 35.5712 32.3525 35.5942 32.2787C35.6171 32.2049 35.6543 32.1364 35.7038 32.0771L37.8356 29.5165H30.8705C30.7147 29.5165 30.5653 29.4546 30.4552 29.3445C30.345 29.2344 30.2832 29.085 30.2832 28.9292C30.2832 28.7735 30.345 28.6241 30.4552 28.514C30.5653 28.4038 30.7147 28.3419 30.8705 28.3419Z" fill="white"/>
<defs>
<filter id="filter0_d_740_109" x="0.2139" y="0.739869" width="69.5342" height="69.5342" filterUnits="userSpaceOnUse" color-interpolation-filters="sRGB">
<feFlood flood-opacity="0" result="BackgroundImageFix"/>
<feColorMatrix in="SourceAlpha" type="matrix" values="0 0 0 0 0 0 0 0 0 0 0 0 0 0 0 0 0 0 127 0" result="hardAlpha"/>
<feOffset dy="6.57756"/>
<feGaussianBlur stdDeviation="10.3362"/>
<feColorMatrix type="matrix" values="0 0 0 0 0.0561111 0 0 0 0 0.0777333 0 0 0 0 0.133333 0 0 0 0.08 0"/>
<feBlend mode="normal" in2="BackgroundImageFix" result="effect1_dropShadow_740_109"/>
<feBlend mode="normal" in="SourceGraphic" in2="effect1_dropShadow_740_109" result="shape"/>
</filter>
</defs>
</svg>
