<svg width="12" height="12" viewBox="0 0 12 12" fill="none" xmlns="http://www.w3.org/2000/svg">
<g clip-path="url(#clip0_740_31)">
<path d="M5.6852 1.40198C3.09458 1.40198 0.986938 3.50962 0.986938 6.10023C0.986938 8.69085 3.09458 10.7985 5.6852 10.7985C8.27581 10.7985 10.3835 8.69085 10.3835 6.10023C10.3835 3.50962 8.27581 1.40198 5.6852 1.40198ZM4.74601 8.17358L3.33393 6.76453C3.15034 6.58134 3.14997 6.28403 3.3331 6.10038V6.10038C3.51634 5.91662 3.81389 5.91628 3.99755 6.09962L4.74507 6.84585L6.90016 4.69076C7.08361 4.50731 7.38105 4.50731 7.5645 4.69076V4.69076C7.74795 4.87421 7.74795 5.17164 7.5645 5.35509L4.74601 8.17358Z" fill="#2FAB73"/>
</g>
<defs>
<clipPath id="clip0_740_31">
<rect width="11.2758" height="11.2758" fill="white" transform="translate(0.046875 0.462402)"/>
</clipPath>
</defs>
</svg>
