<svg width="12" height="12" viewBox="0 0 12 12" fill="none" xmlns="http://www.w3.org/2000/svg">
<path d="M4.99659 7.91606C4.93479 7.91618 4.87356 7.90413 4.81644 7.88059C4.75932 7.85704 4.70741 7.82248 4.66371 7.77887L2.66644 5.7854C2.62144 5.74209 2.58553 5.69027 2.56082 5.63297C2.5361 5.57567 2.52307 5.51403 2.52248 5.45164C2.52189 5.38926 2.53376 5.32739 2.5574 5.26963C2.58103 5.21188 2.61595 5.1594 2.66013 5.11525C2.70431 5.07111 2.75685 5.03618 2.8147 5.01252C2.87254 4.98886 2.93453 4.97693 2.99705 4.97742C3.05957 4.97792 3.12136 4.99084 3.17882 5.01542C3.23628 5.04 3.28826 5.07575 3.33172 5.1206L4.99612 6.78143L7.99297 3.79193C8.08126 3.70377 8.20102 3.65422 8.32592 3.65417C8.45082 3.65413 8.57062 3.7036 8.65897 3.79169C8.74731 3.87979 8.79697 3.9993 8.79702 4.12393C8.79706 4.24856 8.74749 4.3681 8.6592 4.45626L5.32947 7.77887C5.28577 7.82248 5.23386 7.85704 5.17674 7.88059C5.11961 7.90413 5.05839 7.91618 4.99659 7.91606V7.91606Z" fill="#2FAB73"/>
</svg>
