<svg width="12" height="12" viewBox="0 0 12 12" fill="none" xmlns="http://www.w3.org/2000/svg">
<path d="M5.3357 8.50212C5.2739 8.50224 5.21268 8.49019 5.15555 8.46665C5.09843 8.4431 5.04653 8.40854 5.00282 8.36493L3.00555 6.37146C2.96055 6.32815 2.92464 6.27633 2.89993 6.21903C2.87521 6.16173 2.86218 6.10009 2.86159 6.0377C2.86101 5.97532 2.87288 5.91345 2.89651 5.85569C2.92014 5.79794 2.95506 5.74545 2.99924 5.70131C3.04342 5.65717 3.09596 5.62224 3.15381 5.59858C3.21165 5.57492 3.27364 5.56298 3.33616 5.56348C3.39868 5.56398 3.46047 5.5769 3.51793 5.60148C3.57539 5.62606 3.62737 5.66181 3.67083 5.70666L5.33523 7.36749L8.33208 4.37799C8.42037 4.28983 8.54013 4.24028 8.66503 4.24023C8.78993 4.24019 8.90973 4.28966 8.99808 4.37775C9.08643 4.46585 9.13608 4.58536 9.13613 4.70999C9.13617 4.83462 9.0866 4.95416 8.99831 5.04232L5.66858 8.36493C5.62488 8.40854 5.57297 8.4431 5.51585 8.46665C5.45873 8.49019 5.39751 8.50224 5.3357 8.50212V8.50212Z" fill="#2FAB73"/>
</svg>
