<svg width="64" height="8" viewBox="0 0 64 8" fill="none" xmlns="http://www.w3.org/2000/svg">
<circle cx="32.1878" cy="3.92935" r="3.52369" fill="#DDE0E4"/>
<circle cx="46.2826" cy="3.92935" r="3.52369" fill="#DDE0E4"/>
<circle cx="60.377" cy="3.92935" r="3.52369" fill="#DDE0E4"/>
<path fill-rule="evenodd" clip-rule="evenodd" d="M21.6167 3.92934C21.6167 5.87542 20.039 7.45304 18.093 7.45304C18.0274 7.45304 17.9623 7.45125 17.8976 7.44771V7.45294H4.03093C4.01996 7.45304 4.00899 7.45309 3.998 7.45309C3.98701 7.45309 3.97603 7.45304 3.96507 7.45294H3.73841V7.44367C1.91354 7.31079 0.474304 5.78817 0.474304 3.92939C0.474304 2.07062 1.91354 0.547995 3.73841 0.415117V0.405651H17.8976V0.410973C17.9623 0.40744 18.0274 0.405651 18.093 0.405651C20.039 0.405651 21.6167 1.98326 21.6167 3.92934Z" fill="#F53838"/>
</svg>
