<svg width="12" height="12" viewBox="0 0 12 12" fill="none" xmlns="http://www.w3.org/2000/svg">
<path d="M5.52627 8.32988C5.4646 8.33 5.40351 8.31795 5.3465 8.29441C5.2895 8.27086 5.23771 8.2363 5.1941 8.19269L3.2011 6.19922C3.1562 6.15591 3.12037 6.10409 3.09571 6.04679C3.07104 5.98949 3.05804 5.92785 3.05745 5.86546C3.05687 5.80308 3.06871 5.74121 3.0923 5.68345C3.11588 5.62569 3.15073 5.57321 3.19481 5.52907C3.23889 5.48493 3.29132 5.45 3.34904 5.42634C3.40677 5.40267 3.46862 5.39074 3.53101 5.39124C3.59339 5.39174 3.65505 5.40465 3.71239 5.42924C3.76972 5.45382 3.82159 5.48957 3.86496 5.53441L5.5258 7.19525L8.51624 4.20575C8.60433 4.11759 8.72384 4.06804 8.84847 4.06799C8.9731 4.06795 9.09265 4.11742 9.18081 4.20551C9.26897 4.29361 9.31852 4.41312 9.31856 4.53775C9.31861 4.66238 9.26914 4.78192 9.18104 4.87008L5.85843 8.19269C5.81482 8.2363 5.76303 8.27086 5.70603 8.29441C5.64903 8.31795 5.58794 8.33 5.52627 8.32988V8.32988Z" fill="#2FAB73"/>
</svg>
