<svg width="9" height="9" viewBox="0 0 9 9" fill="none" xmlns="http://www.w3.org/2000/svg">
<path d="M7.30268 3.09442L5.43879 2.82354L4.60559 1.13437C4.58283 1.08812 4.54539 1.05068 4.49914 1.02792C4.38315 0.970661 4.24221 1.01838 4.18421 1.13437L3.351 2.82354L1.48712 3.09442C1.43573 3.10176 1.38875 3.12599 1.35278 3.16269C1.30929 3.20739 1.28533 3.26752 1.28615 3.32988C1.28698 3.39223 1.31253 3.45171 1.35718 3.49524L2.70573 4.81002L2.38713 6.66656C2.37966 6.70975 2.38444 6.75417 2.40092 6.79478C2.41741 6.83539 2.44495 6.87056 2.48041 6.89632C2.51587 6.92208 2.55784 6.93738 2.60156 6.9405C2.64528 6.94361 2.68899 6.93442 2.72775 6.91396L4.3949 6.03744L6.06205 6.91396C6.10756 6.93818 6.16042 6.94626 6.21107 6.93745C6.3388 6.91542 6.42469 6.7943 6.40267 6.66656L6.08407 4.81002L7.43262 3.49524C7.46932 3.45927 7.49355 3.41229 7.50089 3.3609C7.52071 3.23243 7.43115 3.11351 7.30268 3.09442V3.09442Z" fill="#FEA250"/>
</svg>
