<svg width="12" height="12" viewBox="0 0 12 12" fill="none" xmlns="http://www.w3.org/2000/svg">
<path d="M5.25233 8.50212C5.19052 8.50224 5.1293 8.49019 5.07218 8.46665C5.01505 8.4431 4.96315 8.40854 4.91945 8.36493L2.92217 6.37146C2.87717 6.32815 2.84127 6.27633 2.81655 6.21903C2.79184 6.16173 2.77881 6.10009 2.77822 6.0377C2.77763 5.97532 2.7895 5.91345 2.81313 5.85569C2.83677 5.79794 2.87169 5.74545 2.91587 5.70131C2.96004 5.65717 3.01259 5.62224 3.07043 5.59858C3.12828 5.57492 3.19027 5.56298 3.25279 5.56348C3.3153 5.56398 3.37709 5.5769 3.43456 5.60148C3.49202 5.62606 3.544 5.66181 3.58746 5.70666L5.25186 7.36749L8.24871 4.37799C8.337 4.28983 8.45676 4.24028 8.58166 4.24023C8.70656 4.24019 8.82636 4.28966 8.9147 4.37775C9.00305 4.46585 9.05271 4.58536 9.05275 4.70999C9.0528 4.83462 9.00322 4.95416 8.91494 5.04232L5.58521 8.36493C5.5415 8.40854 5.4896 8.4431 5.43248 8.46665C5.37535 8.49019 5.31413 8.50224 5.25233 8.50212V8.50212Z" fill="#2FAB73"/>
</svg>
