<svg width="8" height="9" viewBox="0 0 8 9" fill="none" xmlns="http://www.w3.org/2000/svg">
<g clip-path="url(#clip0_740_119)">
<path d="M6.88007 3.09357L5.01619 2.82268L4.18298 1.13351C4.16022 1.08726 4.12278 1.04982 4.07653 1.02707C3.96055 0.969806 3.8196 1.01752 3.7616 1.13351L2.9284 2.82268L1.06451 3.09357C1.01312 3.10091 0.966141 3.12513 0.93017 3.16184C0.886683 3.20653 0.86272 3.26667 0.863546 3.32902C0.864372 3.39138 0.889919 3.45086 0.934575 3.49439L2.28312 4.80916L1.96452 6.66571C1.95705 6.7089 1.96183 6.75331 1.97832 6.79392C1.9948 6.83453 2.02234 6.86971 2.0578 6.89546C2.09326 6.92122 2.13523 6.93653 2.17895 6.93964C2.22267 6.94276 2.26639 6.93356 2.30514 6.9131L3.97229 6.03658L5.63944 6.9131C5.68495 6.93733 5.73781 6.9454 5.78846 6.93659C5.9162 6.91457 6.00209 6.79344 5.98006 6.66571L5.66146 4.80916L7.01001 3.49439C7.04671 3.45841 7.07094 3.41143 7.07828 3.36004C7.0981 3.23158 7.00854 3.11265 6.88007 3.09357V3.09357Z" fill="#FEA250"/>
</g>
<defs>
<clipPath id="clip0_740_119">
<rect width="7.51721" height="7.51721" fill="white" transform="translate(0.214233 0.501495)"/>
</clipPath>
</defs>
</svg>
