<svg width="12" height="12" viewBox="0 0 12 12" fill="none" xmlns="http://www.w3.org/2000/svg">
<path d="M5.16798 8.12285C5.10617 8.12297 5.04495 8.11092 4.98783 8.08737C4.9307 8.06383 4.8788 8.02926 4.8351 7.98566L2.83782 5.99219C2.79282 5.94888 2.75692 5.89706 2.7322 5.83976C2.70749 5.78245 2.69446 5.72081 2.69387 5.65843C2.69328 5.59605 2.70515 5.53418 2.72878 5.47642C2.75242 5.41866 2.78734 5.36618 2.83152 5.32204C2.87569 5.27789 2.92824 5.24297 2.98608 5.21931C3.04393 5.19564 3.10592 5.18371 3.16844 5.18421C3.23095 5.18471 3.29274 5.19762 3.3502 5.22221C3.40767 5.24679 3.45964 5.28254 3.50311 5.32738L5.16751 6.98822L8.16436 3.99872C8.25265 3.91056 8.37241 3.86101 8.49731 3.86096C8.62221 3.86092 8.74201 3.91039 8.83035 3.99848C8.9187 4.08658 8.96836 4.20609 8.9684 4.33072C8.96845 4.45535 8.91887 4.57489 8.83059 4.66305L5.50086 7.98566C5.45715 8.02926 5.40525 8.06383 5.34813 8.08737C5.291 8.11092 5.22978 8.12297 5.16798 8.12285V8.12285Z" fill="#2FAB73"/>
</svg>
