<svg width="12" height="12" viewBox="0 0 12 12" fill="none" xmlns="http://www.w3.org/2000/svg">
<path d="M5.25233 8.29509C5.19052 8.29521 5.1293 8.28316 5.07218 8.25962C5.01505 8.23607 4.96315 8.20151 4.91945 8.1579L2.92217 6.16443C2.87717 6.12112 2.84127 6.0693 2.81655 6.012C2.79184 5.9547 2.77881 5.89306 2.77822 5.83067C2.77763 5.76829 2.7895 5.70642 2.81313 5.64866C2.83677 5.5909 2.87169 5.53842 2.91587 5.49428C2.96004 5.45014 3.01259 5.41521 3.07043 5.39155C3.12828 5.36788 3.19027 5.35595 3.25279 5.35645C3.3153 5.35695 3.37709 5.36986 3.43456 5.39445C3.49202 5.41903 3.544 5.45478 3.58746 5.49962L5.25186 7.16046L8.24871 4.17096C8.337 4.0828 8.45676 4.03325 8.58166 4.0332C8.70656 4.03316 8.82636 4.08263 8.9147 4.17072C9.00305 4.25882 9.05271 4.37833 9.05275 4.50296C9.0528 4.62759 9.00322 4.74713 8.91494 4.83529L5.58521 8.1579C5.5415 8.20151 5.4896 8.23607 5.43248 8.25962C5.37535 8.28316 5.31413 8.29521 5.25233 8.29509V8.29509Z" fill="#2FAB73"/>
</svg>
