<svg width="12" height="12" viewBox="0 0 12 12" fill="none" xmlns="http://www.w3.org/2000/svg">
<path d="M5.35328 7.91581C5.29147 7.91594 5.23025 7.90389 5.17313 7.88034C5.11601 7.8568 5.0641 7.82223 5.0204 7.77863L3.02313 5.78516C2.97813 5.74185 2.94222 5.69003 2.91751 5.63273C2.89279 5.57542 2.87976 5.51378 2.87917 5.4514C2.87858 5.38902 2.89045 5.32714 2.91409 5.26939C2.93772 5.21163 2.97264 5.15915 3.01682 5.11501C3.061 5.07086 3.11354 5.03594 3.17139 5.01228C3.22923 4.98861 3.29122 4.97668 3.35374 4.97718C3.41626 4.97768 3.47805 4.99059 3.53551 5.01517C3.59297 5.03976 3.64495 5.07551 3.68841 5.12035L5.35281 6.78119L8.34966 3.79168C8.43795 3.70353 8.55771 3.65397 8.68261 3.65393C8.80751 3.65389 8.92731 3.70335 9.01566 3.79145C9.104 3.87955 9.15366 3.99905 9.15371 4.12369C9.15375 4.24832 9.10418 4.36786 9.01589 4.45602L5.68616 7.77863C5.64246 7.82223 5.59055 7.8568 5.53343 7.88034C5.4763 7.90389 5.41508 7.91594 5.35328 7.91581V7.91581Z" fill="#2FAB73"/>
</svg>
