<svg width="12" height="13" viewBox="0 0 12 13" fill="none" xmlns="http://www.w3.org/2000/svg">
<path d="M5.22895 8.70891C5.16715 8.70903 5.10593 8.69698 5.0488 8.67343C4.99168 8.64989 4.93977 8.61532 4.89607 8.57172L2.8988 6.57825C2.8538 6.53494 2.81789 6.48312 2.79318 6.42582C2.76846 6.36851 2.75543 6.30687 2.75484 6.24449C2.75426 6.18211 2.76612 6.12024 2.78976 6.06248C2.81339 6.00472 2.84831 5.95224 2.89249 5.9081C2.93667 5.86395 2.98921 5.82903 3.04706 5.80537C3.1049 5.7817 3.16689 5.76977 3.22941 5.77027C3.29193 5.77077 3.35372 5.78368 3.41118 5.80826C3.46864 5.83285 3.52062 5.8686 3.56408 5.91344L5.22848 7.57428L8.22533 4.58478C8.31362 4.49662 8.43338 4.44707 8.55828 4.44702C8.68318 4.44698 8.80298 4.49644 8.89133 4.58454C8.97968 4.67264 9.02933 4.79215 9.02938 4.91678C9.02942 5.04141 8.97985 5.16095 8.89156 5.24911L5.56183 8.57172C5.51813 8.61532 5.46622 8.64989 5.4091 8.67343C5.35198 8.69698 5.29075 8.70903 5.22895 8.70891V8.70891Z" fill="#2FAB73"/>
</svg>
