<svg width="12" height="12" viewBox="0 0 12 12" fill="none" xmlns="http://www.w3.org/2000/svg">
<path d="M5.25037 8.12285C5.18857 8.12297 5.12735 8.11092 5.07022 8.08737C5.0131 8.06383 4.9612 8.02926 4.91749 7.98566L2.92022 5.99219C2.87522 5.94888 2.83932 5.89706 2.8146 5.83976C2.78988 5.78245 2.77685 5.72081 2.77627 5.65843C2.77568 5.59605 2.78755 5.53418 2.81118 5.47642C2.83481 5.41866 2.86974 5.36618 2.91391 5.32204C2.95809 5.27789 3.01063 5.24297 3.06848 5.21931C3.12633 5.19564 3.18832 5.18371 3.25083 5.18421C3.31335 5.18471 3.37514 5.19762 3.4326 5.22221C3.49006 5.24679 3.54204 5.28254 3.58551 5.32738L5.2499 6.98822L8.24676 3.99872C8.33504 3.91056 8.45481 3.86101 8.57971 3.86096C8.7046 3.86092 8.8244 3.91039 8.91275 3.99848C9.0011 4.08658 9.05076 4.20609 9.0508 4.33072C9.05085 4.45535 9.00127 4.57489 8.91299 4.66305L5.58325 7.98566C5.53955 8.02926 5.48765 8.06383 5.43052 8.08737C5.3734 8.11092 5.31218 8.12297 5.25037 8.12285V8.12285Z" fill="#2FAB73"/>
</svg>
