<svg width="12" height="13" viewBox="0 0 12 13" fill="none" xmlns="http://www.w3.org/2000/svg">
<path d="M4.99659 8.70915C4.93479 8.70927 4.87356 8.69722 4.81644 8.67368C4.75932 8.65014 4.70741 8.61557 4.66371 8.57196L2.66644 6.57849C2.62144 6.53518 2.58553 6.48336 2.56082 6.42606C2.5361 6.36876 2.52307 6.30712 2.52248 6.24474C2.52189 6.18235 2.53376 6.12048 2.5574 6.06272C2.58103 6.00497 2.61595 5.95249 2.66013 5.90834C2.70431 5.8642 2.75685 5.82928 2.8147 5.80561C2.87254 5.78195 2.93453 5.77002 2.99705 5.77051C3.05957 5.77101 3.12136 5.78393 3.17882 5.80851C3.23628 5.83309 3.28826 5.86885 3.33172 5.91369L4.99612 7.57452L7.99297 4.58502C8.08126 4.49686 8.20102 4.44731 8.32592 4.44727C8.45082 4.44722 8.57062 4.49669 8.65897 4.58478C8.74731 4.67288 8.79697 4.79239 8.79702 4.91702C8.79706 5.04165 8.74749 5.1612 8.6592 5.24935L5.32947 8.57196C5.28577 8.61557 5.23386 8.65014 5.17674 8.67368C5.11961 8.69722 5.05839 8.70927 4.99659 8.70915V8.70915Z" fill="#2FAB73"/>
</svg>
