<svg width="12" height="12" viewBox="0 0 12 12" fill="none" xmlns="http://www.w3.org/2000/svg">
<g clip-path="url(#clip0_740_28)">
<path d="M5.6852 1.26001C3.09458 1.26001 0.986938 3.36765 0.986938 5.95827C0.986938 8.54889 3.09458 10.6565 5.6852 10.6565C8.27581 10.6565 10.3835 8.54889 10.3835 5.95827C10.3835 3.36765 8.27581 1.26001 5.6852 1.26001ZM4.74601 8.03161L3.33393 6.62257C3.15034 6.43938 3.14997 6.14206 3.3331 5.95841V5.95841C3.51634 5.77465 3.81389 5.77431 3.99755 5.95765L4.74507 6.70388L6.90016 4.54879C7.08361 4.36534 7.38105 4.36534 7.5645 4.54879V4.54879C7.74795 4.73224 7.74795 5.02967 7.5645 5.21312L4.74601 8.03161Z" fill="#2FAB73"/>
</g>
<defs>
<clipPath id="clip0_740_28">
<rect width="11.2758" height="11.2758" fill="white" transform="translate(0.046875 0.320312)"/>
</clipPath>
</defs>
</svg>
