<svg width="12" height="12" viewBox="0 0 12 12" fill="none" xmlns="http://www.w3.org/2000/svg">
<path d="M5.081 7.91606C5.0192 7.91618 4.95798 7.90413 4.90085 7.88059C4.84373 7.85704 4.79183 7.82248 4.74812 7.77887L2.75085 5.7854C2.70585 5.74209 2.66994 5.69027 2.64523 5.63297C2.62051 5.57567 2.60748 5.51403 2.60689 5.45164C2.60631 5.38926 2.61818 5.32739 2.64181 5.26963C2.66544 5.21188 2.70036 5.1594 2.74454 5.11525C2.78872 5.07111 2.84126 5.03618 2.89911 5.01252C2.95695 4.98886 3.01894 4.97693 3.08146 4.97742C3.14398 4.97792 3.20577 4.99084 3.26323 5.01542C3.32069 5.04 3.37267 5.07575 3.41613 5.1206L5.08053 6.78143L8.07739 3.79193C8.16567 3.70377 8.28543 3.65422 8.41033 3.65417C8.53523 3.65413 8.65503 3.7036 8.74338 3.79169C8.83173 3.87979 8.88138 3.9993 8.88143 4.12393C8.88147 4.24856 8.8319 4.3681 8.74361 4.45626L5.41388 7.77887C5.37018 7.82248 5.31827 7.85704 5.26115 7.88059C5.20403 7.90413 5.14281 7.91618 5.081 7.91606V7.91606Z" fill="#2FAB73"/>
</svg>
