<svg width="12" height="12" viewBox="0 0 12 12" fill="none" xmlns="http://www.w3.org/2000/svg">
<g clip-path="url(#clip0_740_22)">
<path d="M5.6852 0.975586C3.09458 0.975586 0.986938 3.08322 0.986938 5.67384C0.986938 8.26446 3.09458 10.3721 5.6852 10.3721C8.27581 10.3721 10.3835 8.26446 10.3835 5.67384C10.3835 3.08322 8.27581 0.975586 5.6852 0.975586ZM4.74601 7.74718L3.33393 6.33814C3.15034 6.15495 3.14997 5.85764 3.3331 5.67399V5.67399C3.51634 5.49023 3.81389 5.48989 3.99755 5.67323L4.74507 6.41946L6.90016 4.26437C7.08361 4.08092 7.38105 4.08091 7.5645 4.26437V4.26437C7.74795 4.44782 7.74795 4.74525 7.5645 4.9287L4.74601 7.74718Z" fill="#2FAB73"/>
</g>
<defs>
<clipPath id="clip0_740_22">
<rect width="11.2758" height="11.2758" fill="white" transform="translate(0.046875 0.0360107)"/>
</clipPath>
</defs>
</svg>
