<svg width="12" height="12" viewBox="0 0 12 12" fill="none" xmlns="http://www.w3.org/2000/svg">
<path d="M5.24091 8.12272C5.17911 8.12285 5.11789 8.11079 5.06076 8.08725C5.00364 8.06371 4.95174 8.02914 4.90803 7.98553L2.91076 5.99206C2.86576 5.94876 2.82986 5.89694 2.80514 5.83964C2.78042 5.78233 2.76739 5.72069 2.76681 5.65831C2.76622 5.59593 2.77809 5.53405 2.80172 5.4763C2.82535 5.41854 2.86028 5.36606 2.90445 5.32192C2.94863 5.27777 3.00117 5.24285 3.05902 5.21919C3.11687 5.19552 3.17886 5.18359 3.24137 5.18409C3.30389 5.18459 3.36568 5.1975 3.42314 5.22208C3.4806 5.24666 3.53258 5.28242 3.57605 5.32726L5.24044 6.98809L8.2373 3.99859C8.32558 3.91044 8.44535 3.86088 8.57024 3.86084C8.69514 3.8608 8.81494 3.91026 8.90329 3.99836C8.99164 4.08646 9.0413 4.20596 9.04134 4.33059C9.04138 4.45523 8.99181 4.57477 8.90353 4.66293L5.57379 7.98553C5.53009 8.02914 5.47819 8.06371 5.42106 8.08725C5.36394 8.11079 5.30272 8.12285 5.24091 8.12272V8.12272Z" fill="#2FAB73"/>
</svg>
