<svg width="12" height="12" viewBox="0 0 12 12" fill="none" xmlns="http://www.w3.org/2000/svg">
<g clip-path="url(#clip0_740_25)">
<path d="M5.6852 1.1178C3.09458 1.1178 0.986938 3.22544 0.986938 5.81605C0.986938 8.40667 3.09458 10.5143 5.6852 10.5143C8.27581 10.5143 10.3835 8.40667 10.3835 5.81605C10.3835 3.22544 8.27581 1.1178 5.6852 1.1178ZM4.74601 7.8894L3.33393 6.48035C3.15034 6.29716 3.14997 5.99985 3.3331 5.8162V5.8162C3.51634 5.63244 3.81389 5.6321 3.99755 5.81544L4.74507 6.56167L6.90016 4.40658C7.08361 4.22313 7.38105 4.22313 7.5645 4.40658V4.40658C7.74795 4.59003 7.74795 4.88746 7.5645 5.07091L4.74601 7.8894Z" fill="#2FAB73"/>
</g>
<defs>
<clipPath id="clip0_740_25">
<rect width="11.2758" height="11.2758" fill="white" transform="translate(0.046875 0.178101)"/>
</clipPath>
</defs>
</svg>
