<svg width="12" height="12" viewBox="0 0 12 12" fill="none" xmlns="http://www.w3.org/2000/svg">
<path d="M5.0599 8.32988C4.99823 8.33 4.93714 8.31795 4.88013 8.29441C4.82313 8.27086 4.77134 8.2363 4.72773 8.19269L2.73473 6.19922C2.68983 6.15591 2.654 6.10409 2.62934 6.04679C2.60467 5.98949 2.59167 5.92785 2.59109 5.86546C2.5905 5.80308 2.60234 5.74121 2.62593 5.68345C2.64951 5.62569 2.68436 5.57321 2.72844 5.52907C2.77252 5.48493 2.82495 5.45 2.88267 5.42634C2.9404 5.40267 3.00225 5.39074 3.06464 5.39124C3.12702 5.39174 3.18868 5.40465 3.24602 5.42924C3.30335 5.45382 3.35522 5.48957 3.39859 5.53441L5.05943 7.19525L8.04987 4.20575C8.13797 4.11759 8.25747 4.06804 8.3821 4.06799C8.50673 4.06795 8.62628 4.11742 8.71444 4.20551C8.8026 4.29361 8.85215 4.41312 8.85219 4.53775C8.85224 4.66238 8.80277 4.78192 8.71467 4.87008L5.39206 8.19269C5.34846 8.2363 5.29666 8.27086 5.23966 8.29441C5.18266 8.31795 5.12157 8.33 5.0599 8.32988V8.32988Z" fill="#2FAB73"/>
</svg>
