<svg width="12" height="13" viewBox="0 0 12 13" fill="none" xmlns="http://www.w3.org/2000/svg">
<path d="M5.081 8.70927C5.0192 8.7094 4.95798 8.69734 4.90085 8.6738C4.84373 8.65026 4.79183 8.61569 4.74812 8.57208L2.75085 6.57861C2.70585 6.5353 2.66994 6.48349 2.64523 6.42618C2.62051 6.36888 2.60748 6.30724 2.60689 6.24486C2.60631 6.18248 2.61818 6.1206 2.64181 6.06285C2.66544 6.00509 2.70036 5.95261 2.74454 5.90846C2.78872 5.86432 2.84126 5.8294 2.89911 5.80573C2.95695 5.78207 3.01894 5.77014 3.08146 5.77064C3.14398 5.77113 3.20577 5.78405 3.26323 5.80863C3.32069 5.83321 3.37267 5.86897 3.41613 5.91381L5.08053 7.57464L8.07739 4.58514C8.16567 4.49698 8.28543 4.44743 8.41033 4.44739C8.53523 4.44734 8.65503 4.49681 8.74338 4.58491C8.83173 4.673 8.88138 4.79251 8.88143 4.91714C8.88147 5.04177 8.8319 5.16132 8.74361 5.24948L5.41388 8.57208C5.37018 8.61569 5.31827 8.65026 5.26115 8.6738C5.20403 8.69734 5.14281 8.7094 5.081 8.70927V8.70927Z" fill="#2FAB73"/>
</svg>
