<svg width="12" height="12" viewBox="0 0 12 12" fill="none" xmlns="http://www.w3.org/2000/svg">
<path d="M9.49437 4.79537C9.49437 4.36348 9.4093 3.93582 9.24403 3.53681C9.07875 3.1378 8.8365 2.77524 8.53111 2.46985C8.22572 2.16446 7.86316 1.92221 7.46415 1.75694C7.06514 1.59166 6.63748 1.50659 6.20559 1.50659C5.7737 1.50659 5.34604 1.59166 4.94703 1.75694C4.54801 1.92221 4.18546 2.16446 3.88007 2.46985C3.57468 2.77524 3.33243 3.1378 3.16715 3.53681C3.00188 3.93582 2.91681 4.36348 2.91681 4.79537C2.91681 5.44702 3.10944 6.0531 3.43597 6.56427H3.43221C4.541 8.30027 6.20559 10.9031 6.20559 10.9031L8.97897 6.56427H8.97568C9.31415 6.03635 9.49416 5.42247 9.49437 4.79537V4.79537ZM6.20559 6.20485C5.83177 6.20485 5.47327 6.05635 5.20894 5.79202C4.94461 5.52769 4.79611 5.16919 4.79611 4.79537C4.79611 4.42156 4.94461 4.06305 5.20894 3.79872C5.47327 3.53439 5.83177 3.38589 6.20559 3.38589C6.57941 3.38589 6.93791 3.53439 7.20224 3.79872C7.46657 4.06305 7.61507 4.42156 7.61507 4.79537C7.61507 5.16919 7.46657 5.52769 7.20224 5.79202C6.93791 6.05635 6.57941 6.20485 6.20559 6.20485Z" fill="#F53838"/>
</svg>
