<svg width="27" height="27" viewBox="0 0 27 27" fill="none" xmlns="http://www.w3.org/2000/svg">
<rect x="0.208984" y="0.284668" width="25.8404" height="25.8404" rx="12.9202" fill="#FFECEC"/>
<path d="M17.888 8.97644H10.3708C10.1216 8.97644 9.88259 9.07544 9.70637 9.25166C9.53015 9.42788 9.43115 9.66688 9.43115 9.91609V11.7954C9.43115 12.0446 9.53015 12.2836 9.70637 12.4598C9.88259 12.636 10.1216 12.735 10.3708 12.735H17.888C18.1372 12.735 18.3762 12.636 18.5524 12.4598C18.7287 12.2836 18.8277 12.0446 18.8277 11.7954V9.91609C18.8277 9.66688 18.7287 9.42788 18.5524 9.25166C18.3762 9.07544 18.1372 8.97644 17.888 8.97644ZM15.5389 10.8557C15.5389 11.1152 15.3285 11.3256 15.0691 11.3256V11.3256C14.8096 11.3256 14.5992 11.1152 14.5992 10.8557V10.8557C14.5992 10.5963 14.8096 10.3859 15.0691 10.3859V10.3859C15.3285 10.3859 15.5389 10.5963 15.5389 10.8557V10.8557ZM17.4182 10.8557C17.4182 11.1152 17.2078 11.3256 16.9484 11.3256V11.3256C16.6889 11.3256 16.4785 11.1152 16.4785 10.8557V10.8557C16.4785 10.5963 16.6889 10.3859 16.9484 10.3859V10.3859C17.2078 10.3859 17.4182 10.5963 17.4182 10.8557V10.8557ZM17.888 13.6747H10.3708C10.1216 13.6747 9.88259 13.7737 9.70637 13.9499C9.53015 14.1261 9.43115 14.3651 9.43115 14.6143V16.4937C9.43115 16.7429 9.53015 16.9819 9.70637 17.1581C9.88259 17.3343 10.1216 17.4333 10.3708 17.4333H17.888C18.1372 17.4333 18.3762 17.3343 18.5524 17.1581C18.7287 16.9819 18.8277 16.7429 18.8277 16.4937V14.6143C18.8277 14.3651 18.7287 14.1261 18.5524 13.9499C18.3762 13.7737 18.1372 13.6747 17.888 13.6747ZM15.5389 15.554C15.5389 15.8135 15.3285 16.0238 15.0691 16.0238V16.0238C14.8096 16.0238 14.5992 15.8135 14.5992 15.554V15.554C14.5992 15.2945 14.8096 15.0842 15.0691 15.0842V15.0842C15.3285 15.0842 15.5389 15.2945 15.5389 15.554V15.554ZM17.4182 15.554C17.4182 15.8135 17.2078 16.0238 16.9484 16.0238V16.0238C16.6889 16.0238 16.4785 15.8135 16.4785 15.554V15.554C16.4785 15.2945 16.6889 15.0842 16.9484 15.0842V15.0842C17.2078 15.0842 17.4182 15.2945 17.4182 15.554V15.554Z" fill="#F53838"/>
</svg>
