<svg width="69" height="79" viewBox="0 0 69 79" fill="none" xmlns="http://www.w3.org/2000/svg">
<path fill-rule="evenodd" clip-rule="evenodd" d="M25.4196 19.6425C25.7281 18.9727 26.0895 18.4524 26.3283 18.178C26.333 18.8251 26.2333 19.4055 26.0789 19.91C26.5542 20.1392 27.0481 20.4602 27.52 20.9032C27.1564 20.8922 26.5289 20.8041 25.8275 20.5757C25.5042 21.2885 25.0956 21.7808 24.8277 22.0099C24.8458 21.41 24.9721 20.835 25.1494 20.3163C24.6484 20.0943 24.1407 19.7966 23.6882 19.4026C24.0382 19.3615 24.6769 19.3958 25.4196 19.6425Z" fill="url(#paint0_linear_740_491)"/>
<path fill-rule="evenodd" clip-rule="evenodd" d="M22.9803 12.9321C23.1857 12.4863 23.4262 12.1399 23.5852 11.9573C23.5883 12.388 23.5219 12.7743 23.4191 13.1101C23.7355 13.2627 24.0643 13.4764 24.3785 13.7713C24.1364 13.764 23.7187 13.7053 23.2518 13.5532C23.0366 14.0278 22.7646 14.3554 22.5863 14.5079C22.5984 14.1086 22.6824 13.7258 22.8005 13.3806C22.467 13.2328 22.1291 13.0346 21.8279 12.7724C22.0609 12.7451 22.486 12.7679 22.9803 12.9321Z" fill="url(#paint1_linear_740_491)"/>
<path fill-rule="evenodd" clip-rule="evenodd" d="M15.3792 6.26166C15.6877 5.59185 16.0491 5.07153 16.2879 4.79718C16.2926 5.44425 16.1929 6.02467 16.0385 6.52912C16.5138 6.75836 17.0077 7.07937 17.4796 7.52235C17.116 7.51135 16.4885 7.42326 15.7871 7.19481C15.4638 7.90768 15.0552 8.39989 14.7873 8.62904C14.8054 8.0291 14.9317 7.45413 15.109 6.93547C14.608 6.71344 14.1003 6.4157 13.6477 6.0217C13.9978 5.98066 14.6365 6.01494 15.3792 6.26166Z" fill="url(#paint2_linear_740_491)"/>
<path fill-rule="evenodd" clip-rule="evenodd" d="M14.3339 21.2799C14.7878 20.2944 15.3196 19.5288 15.671 19.1251C15.6779 20.0773 15.5311 20.9313 15.3039 21.6736C16.0028 22.0108 16.7292 22.483 17.4232 23.1344C16.8883 23.1182 15.9655 22.9887 14.934 22.6528C14.4585 23.7015 13.8573 24.4256 13.4632 24.7627C13.4899 23.8801 13.6756 23.0344 13.9364 22.2714C13.199 21.9447 12.4518 21.5065 11.7856 20.9266C12.3008 20.8662 13.2408 20.9167 14.3339 21.2799Z" fill="url(#paint3_linear_740_491)"/>
<circle cx="17.0647" cy="14.535" r="0.397721" transform="rotate(21.3865 17.0647 14.535)" fill="#2F235A"/>
<circle cx="27.9119" cy="9.53417" r="0.397721" transform="rotate(21.3865 27.9119 9.53417)" fill="#FE9076"/>
<circle cx="8.00832" cy="11.7068" r="0.397721" transform="rotate(21.3865 8.00832 11.7068)" fill="#FFA400"/>
<circle cx="16.5493" cy="27.7209" r="0.397721" transform="rotate(21.3865 16.5493 27.7209)" fill="#23BB86"/>
<path d="M27.6102 7.63321C27.2233 6.15538 25.8266 2.77553 23.3356 1.07874" stroke="#FE9076" stroke-width="0.346178" stroke-linecap="round"/>
<path d="M6.83473 10.1023C5.87192 8.91629 3.20395 6.41512 0.23451 5.89876" stroke="#FFA400" stroke-width="0.346178" stroke-linecap="round"/>
<path d="M14.8568 28.299C14.0036 28.6101 11.8556 29.6017 10.0898 31.0785" stroke="#23BB86" stroke-width="0.346178" stroke-linecap="round"/>
<path fill-rule="evenodd" clip-rule="evenodd" d="M45.13 19.6424C44.8215 18.9726 44.4601 18.4523 44.2212 18.1779C44.2166 18.825 44.3163 19.4054 44.4707 19.9098C43.9954 20.1391 43.5015 20.4601 43.0296 20.9031C43.3932 20.8921 44.0207 20.804 44.7221 20.5755C45.0453 21.2884 45.454 21.7806 45.7219 22.0098C45.7037 21.4098 45.5775 20.8349 45.4002 20.3162C45.9012 20.0942 46.4088 19.7964 46.8614 19.4024C46.5113 19.3614 45.8727 19.3957 45.13 19.6424Z" fill="url(#paint4_linear_740_491)"/>
<path fill-rule="evenodd" clip-rule="evenodd" d="M47.5678 12.9322C47.3624 12.4864 47.1218 12.14 46.9629 11.9574C46.9598 12.3881 47.0261 12.7744 47.1289 13.1102C46.8125 13.2628 46.4837 13.4765 46.1696 13.7713C46.4116 13.764 46.8294 13.7054 47.2962 13.5533C47.5114 14.0278 47.7834 14.3555 47.9618 14.508C47.9497 14.1087 47.8656 13.7259 47.7476 13.3807C48.0811 13.2329 48.4189 13.0347 48.7202 12.7725C48.4872 12.7452 48.0621 12.768 47.5678 12.9322Z" fill="url(#paint5_linear_740_491)"/>
<path fill-rule="evenodd" clip-rule="evenodd" d="M54.1694 6.26171C53.8609 5.5919 53.4995 5.07159 53.2607 4.79724C53.256 5.44431 53.3557 6.02472 53.5101 6.52917C53.0348 6.75841 52.5409 7.07943 52.069 7.52241C52.4326 7.51141 53.0601 7.42332 53.7615 7.19486C54.0848 7.90774 54.4934 8.39995 54.7613 8.6291C54.7432 8.02916 54.6169 7.45418 54.4396 6.93552C54.9406 6.71349 55.4482 6.41575 55.9008 6.02176C55.5508 5.98072 54.9121 6.015 54.1694 6.26171Z" fill="url(#paint6_linear_740_491)"/>
<path fill-rule="evenodd" clip-rule="evenodd" d="M55.2157 21.28C54.7617 20.2945 54.23 19.5289 53.8786 19.1252C53.8717 20.0774 54.0184 20.9314 54.2457 21.6737C53.5467 22.0109 52.8204 22.4831 52.1264 23.1345C52.6612 23.1183 53.584 22.9888 54.6155 22.6529C55.0911 23.7016 55.6922 24.4257 56.0864 24.7628C56.0597 23.8803 55.874 23.0345 55.6132 22.2715C56.3506 21.9448 57.0978 21.5066 57.764 20.9267C57.2488 20.8663 56.3087 20.9168 55.2157 21.28Z" fill="url(#paint7_linear_740_491)"/>
<circle r="0.397721" transform="matrix(-0.931142 0.364658 0.364658 0.931142 52.4845 14.5349)" fill="#2F235A"/>
<circle r="0.397721" transform="matrix(-0.931142 0.364658 0.364658 0.931142 42.6372 9.53416)" fill="#FE9076"/>
<circle r="0.397721" transform="matrix(-0.931142 0.364658 0.364658 0.931142 60.5408 11.7068)" fill="#FFA400"/>
<circle r="0.397721" transform="matrix(-0.931142 0.364658 0.364658 0.931142 52.9999 27.7209)" fill="#23BB86"/>
<path d="M42.939 7.63321C43.3259 6.15538 44.7226 2.77553 47.2136 1.07874" stroke="#FE9076" stroke-width="0.346178" stroke-linecap="round"/>
<path d="M61.714 10.1023C62.6768 8.91629 65.3448 6.41512 68.3142 5.89876" stroke="#FFA400" stroke-width="0.346178" stroke-linecap="round"/>
<path d="M59.6924 28.299C60.5456 28.6101 62.6936 29.6017 64.4593 31.0785" stroke="#23BB86" stroke-width="0.346178" stroke-linecap="round"/>
<rect x="13.1669" y="49.5948" width="42.2141" height="29.181" fill="url(#paint8_linear_740_491)"/>
<mask id="mask0_740_491" style="mask-type:alpha" maskUnits="userSpaceOnUse" x="13" y="49" width="43" height="30">
<rect x="13.1669" y="49.5948" width="42.2141" height="29.181" fill="#C4C4C4"/>
</mask>
<g mask="url(#mask0_740_491)">
<path d="M15.1642 48.8518L43.9091 48.8518L37.412 60.133L8.66718 60.133L15.1642 48.8518Z" fill="black" fill-opacity="0.07"/>
<rect x="42.874" y="49.5948" width="42.2141" height="29.181" fill="url(#paint9_linear_740_491)"/>
</g>
<path d="M13.13 49.5949L41.8748 49.5948L36.3222 58.861L7.57733 58.861L13.13 49.5949Z" fill="url(#paint10_linear_740_491)"/>
<mask id="mask1_740_491" style="mask-type:alpha" maskUnits="userSpaceOnUse" x="42" y="49" width="15" height="30">
<rect x="42.8743" y="49.5948" width="13.5065" height="29.181" fill="#C4C4C4"/>
</mask>
<g mask="url(#mask1_740_491)">
<path d="M54.7366 49.5464L41.209 49.5464L47.5654 60.2146L61.093 60.2146L54.7366 49.5464Z" fill="black" fill-opacity="0.07"/>
</g>
<path d="M56.4018 49.5949L42.8742 49.5948L48.4268 58.861L61.9545 58.861L56.4018 49.5949Z" fill="url(#paint11_linear_740_491)"/>
<circle cx="28.1921" cy="42.1623" r="3.98921" fill="url(#paint12_linear_740_491)"/>
<circle cx="43.7908" cy="34.3183" r="3.85479" fill="url(#paint13_linear_740_491)"/>
<circle cx="29.0727" cy="27.3551" r="3.10851" fill="url(#paint14_linear_740_491)"/>
<circle cx="40.9789" cy="20.2422" r="2.812" fill="url(#paint15_linear_740_491)"/>
<circle cx="36.4029" cy="30.777" r="0.775212" fill="#FFA800" fill-opacity="0.23"/>
<circle cx="48.4212" cy="25.0218" r="0.775212" fill="#FFA800" fill-opacity="0.23"/>
<circle cx="29.8482" cy="15.7619" r="0.775212" fill="#FFA800" fill-opacity="0.23"/>
<circle cx="40.204" cy="43.884" r="0.775212" fill="#FFA800" fill-opacity="0.23"/>
<circle cx="22.2799" cy="31.5523" r="0.775212" fill="#FFA800" fill-opacity="0.23"/>
<path d="M55.4807 49.7329H13.1336L6.63007 9.63428H63.2901L55.4807 49.7329Z" fill="url(#paint16_linear_740_491)"/>
<defs>
<linearGradient id="paint0_linear_740_491" x1="26.2112" y1="18.6026" x2="24.8022" y2="22.2005" gradientUnits="userSpaceOnUse">
<stop stop-color="#FFE89E"/>
<stop offset="1" stop-color="#FFBF1A"/>
</linearGradient>
<linearGradient id="paint1_linear_740_491" x1="23.5073" y1="12.2399" x2="22.5694" y2="14.6348" gradientUnits="userSpaceOnUse">
<stop stop-color="#FFE89E"/>
<stop offset="1" stop-color="#FFBF1A"/>
</linearGradient>
<linearGradient id="paint2_linear_740_491" x1="16.1708" y1="5.22174" x2="14.7618" y2="8.8196" gradientUnits="userSpaceOnUse">
<stop stop-color="#FFE89E"/>
<stop offset="1" stop-color="#FFBF1A"/>
</linearGradient>
<linearGradient id="paint3_linear_740_491" x1="15.4977" y1="19.7493" x2="13.4248" y2="25.0426" gradientUnits="userSpaceOnUse">
<stop stop-color="#FFE89E"/>
<stop offset="1" stop-color="#FFBF1A"/>
</linearGradient>
<linearGradient id="paint4_linear_740_491" x1="44.3383" y1="18.6025" x2="45.7474" y2="22.2003" gradientUnits="userSpaceOnUse">
<stop stop-color="#FFE89E"/>
<stop offset="1" stop-color="#FFBF1A"/>
</linearGradient>
<linearGradient id="paint5_linear_740_491" x1="47.0408" y1="12.2399" x2="47.9787" y2="14.6348" gradientUnits="userSpaceOnUse">
<stop stop-color="#FFE89E"/>
<stop offset="1" stop-color="#FFBF1A"/>
</linearGradient>
<linearGradient id="paint6_linear_740_491" x1="53.3778" y1="5.22174" x2="54.7868" y2="8.8196" gradientUnits="userSpaceOnUse">
<stop stop-color="#FFE89E"/>
<stop offset="1" stop-color="#FFBF1A"/>
</linearGradient>
<linearGradient id="paint7_linear_740_491" x1="54.0518" y1="19.7494" x2="56.1248" y2="25.0427" gradientUnits="userSpaceOnUse">
<stop stop-color="#FFE89E"/>
<stop offset="1" stop-color="#FFBF1A"/>
</linearGradient>
<linearGradient id="paint8_linear_740_491" x1="27.2683" y1="44.1923" x2="10.4437" y2="90.532" gradientUnits="userSpaceOnUse">
<stop stop-color="#FFD481"/>
<stop offset="1" stop-color="#FA620C"/>
</linearGradient>
<linearGradient id="paint9_linear_740_491" x1="21.3691" y1="47.744" x2="72.4298" y2="102.309" gradientUnits="userSpaceOnUse">
<stop stop-color="#FFD481"/>
<stop offset="0.83311" stop-color="#FA620C"/>
</linearGradient>
<linearGradient id="paint10_linear_740_491" x1="13.7215" y1="46.2831" x2="12.3554" y2="66.0264" gradientUnits="userSpaceOnUse">
<stop stop-color="#FFD481"/>
<stop offset="1" stop-color="#FA620C"/>
</linearGradient>
<linearGradient id="paint11_linear_740_491" x1="58.5363" y1="46.2831" x2="60.9661" y2="65.8187" gradientUnits="userSpaceOnUse">
<stop stop-color="#FFD481"/>
<stop offset="1" stop-color="#FA620C"/>
</linearGradient>
<linearGradient id="paint12_linear_740_491" x1="28.4942" y1="36.8565" x2="27.7354" y2="47.6244" gradientUnits="userSpaceOnUse">
<stop stop-color="#FF9F81"/>
<stop offset="1" stop-color="#F53838"/>
</linearGradient>
<linearGradient id="paint13_linear_740_491" x1="44.0827" y1="29.1913" x2="43.3495" y2="39.5963" gradientUnits="userSpaceOnUse">
<stop stop-color="#FF9F81"/>
<stop offset="1" stop-color="#F53838"/>
</linearGradient>
<linearGradient id="paint14_linear_740_491" x1="29.3081" y1="23.2207" x2="28.7168" y2="31.6113" gradientUnits="userSpaceOnUse">
<stop stop-color="#FF9F81"/>
<stop offset="1" stop-color="#F53838"/>
</linearGradient>
<linearGradient id="paint15_linear_740_491" x1="41.1918" y1="16.5021" x2="40.6569" y2="24.0924" gradientUnits="userSpaceOnUse">
<stop stop-color="#FF9F81"/>
<stop offset="1" stop-color="#F53838"/>
</linearGradient>
<linearGradient id="paint16_linear_740_491" x1="34.4945" y1="9.63428" x2="34.4945" y2="94.8249" gradientUnits="userSpaceOnUse">
<stop stop-color="white" stop-opacity="0"/>
<stop offset="1" stop-color="#FE9277"/>
</linearGradient>
</defs>
</svg>
