<svg width="33" height="34" viewBox="0 0 33 34" fill="none" xmlns="http://www.w3.org/2000/svg">
<g filter="url(#filter0_d_740_127)">
<circle cx="16.3669" cy="11.2124" r="7.89304" fill="#F53838"/>
</g>
<path d="M16.5348 3.31934C12.1662 3.31934 8.62482 6.85313 8.62482 11.2124C8.62482 15.5717 12.1662 19.1055 16.5348 19.1055C20.9034 19.1055 24.4448 15.5717 24.4448 11.2124C24.4448 6.85313 20.9034 3.31934 16.5348 3.31934ZM18.4085 8.77378H17.2195C17.0786 8.77378 16.9221 8.95877 16.9221 9.20461V10.0613H18.4093L18.1844 11.2831H16.9221V14.9509H15.5189V11.2831H14.2459V10.0613H15.5189V9.34274C15.5189 8.3117 16.2357 7.47389 17.2195 7.47389H18.4085V8.77378Z" fill="white"/>
<defs>
<filter id="filter0_d_740_127" x="0.0169544" y="0.970208" width="32.6998" height="32.6998" filterUnits="userSpaceOnUse" color-interpolation-filters="sRGB">
<feFlood flood-opacity="0" result="BackgroundImageFix"/>
<feColorMatrix in="SourceAlpha" type="matrix" values="0 0 0 0 0 0 0 0 0 0 0 0 0 0 0 0 0 0 127 0" result="hardAlpha"/>
<feOffset dy="6.10773"/>
<feGaussianBlur stdDeviation="4.22843"/>
<feColorMatrix type="matrix" values="0 0 0 0 0.0658854 0 0 0 0 0.0730469 0 0 0 0 0.1375 0 0 0 0.08 0"/>
<feBlend mode="normal" in2="BackgroundImageFix" result="effect1_dropShadow_740_127"/>
<feBlend mode="normal" in="SourceGraphic" in2="effect1_dropShadow_740_127" result="shape"/>
</filter>
</defs>
</svg>
