<svg width="34" height="34" viewBox="0 0 34 34" fill="none" xmlns="http://www.w3.org/2000/svg">
<g filter="url(#filter0_d_740_133)">
<circle cx="16.7323" cy="11.2124" r="7.89304" fill="#F53838"/>
</g>
<path d="M19.4802 11.2124C19.4802 11.8666 19.2198 12.494 18.7562 12.9565C18.2926 13.4191 17.6639 13.679 17.0083 13.679C16.3527 13.679 15.724 13.4191 15.2604 12.9565C14.7969 12.494 14.5365 11.8666 14.5365 11.2124C14.5365 11.0718 14.5513 10.9345 14.5768 10.8013H13.7125V14.0876C13.7125 14.3162 13.8979 14.5012 14.1269 14.5012H19.8905C20.0003 14.501 20.1055 14.4573 20.1831 14.3798C20.2606 14.3022 20.3042 14.1972 20.3042 14.0876V10.8013H19.4398C19.4654 10.9345 19.4802 11.0718 19.4802 11.2124V11.2124ZM17.0083 12.8568C17.2248 12.8567 17.4391 12.8141 17.6391 12.7314C17.839 12.6487 18.0207 12.5275 18.1738 12.3748C18.3268 12.222 18.4481 12.0406 18.5309 11.8411C18.6137 11.6415 18.6563 11.4276 18.6562 11.2116C18.6562 10.9956 18.6135 10.7817 18.5306 10.5822C18.4477 10.3826 18.3263 10.2014 18.1732 10.0487C18.0201 9.89596 17.8383 9.77485 17.6383 9.69224C17.4383 9.60963 17.224 9.56714 17.0075 9.5672C16.5703 9.56731 16.1511 9.7407 15.8421 10.0492C15.533 10.3578 15.3595 10.7762 15.3596 11.2124C15.3597 11.6486 15.5335 12.067 15.8427 12.3753C16.1519 12.6837 16.5712 12.8569 17.0083 12.8568V12.8568ZM18.9858 9.4858H19.9738C20.0394 9.4858 20.1023 9.45984 20.1488 9.4136C20.1953 9.36737 20.2215 9.30463 20.2218 9.23914V8.25333C20.2218 8.18769 20.1956 8.12474 20.1491 8.07833C20.1026 8.03192 20.0395 8.00585 19.9738 8.00585H18.9858C18.9201 8.00585 18.857 8.03192 18.8105 8.07833C18.7639 8.12474 18.7378 8.18769 18.7378 8.25333V9.23914C18.7386 9.3748 18.8499 9.4858 18.9858 9.4858V9.4858ZM17.0083 3.31934C14.9105 3.31934 12.8985 4.15092 11.4151 5.63116C9.9317 7.1114 9.09833 9.11904 9.09833 11.2124C9.09833 13.3058 9.9317 15.3134 11.4151 16.7937C12.8985 18.2739 14.9105 19.1055 17.0083 19.1055C18.0471 19.1055 19.0757 18.9013 20.0354 18.5047C20.995 18.108 21.867 17.5266 22.6015 16.7937C23.3361 16.0607 23.9187 15.1906 24.3162 14.233C24.7137 13.2753 24.9183 12.2489 24.9183 11.2124C24.9183 10.1759 24.7137 9.14949 24.3162 8.19186C23.9187 7.23423 23.3361 6.3641 22.6015 5.63116C21.867 4.89822 20.995 4.31682 20.0354 3.92016C19.0757 3.5235 18.0471 3.31934 17.0083 3.31934V3.31934ZM21.1281 14.4099C21.1281 14.9123 20.7161 15.3234 20.2127 15.3234H13.804C13.3005 15.3234 12.8885 14.9123 12.8885 14.4099V8.01489C12.8885 7.51253 13.3005 7.10143 13.804 7.10143H20.2127C20.7161 7.10143 21.1281 7.51253 21.1281 8.01489V14.4099V14.4099Z" fill="white"/>
<defs>
<filter id="filter0_d_740_133" x="0.382433" y="0.970208" width="32.6998" height="32.6998" filterUnits="userSpaceOnUse" color-interpolation-filters="sRGB">
<feFlood flood-opacity="0" result="BackgroundImageFix"/>
<feColorMatrix in="SourceAlpha" type="matrix" values="0 0 0 0 0 0 0 0 0 0 0 0 0 0 0 0 0 0 127 0" result="hardAlpha"/>
<feOffset dy="6.10773"/>
<feGaussianBlur stdDeviation="4.22843"/>
<feColorMatrix type="matrix" values="0 0 0 0 0.0658854 0 0 0 0 0.0730469 0 0 0 0 0.1375 0 0 0 0.08 0"/>
<feBlend mode="normal" in2="BackgroundImageFix" result="effect1_dropShadow_740_133"/>
<feBlend mode="normal" in="SourceGraphic" in2="effect1_dropShadow_740_133" result="shape"/>
</filter>
</defs>
</svg>
