<svg width="33" height="34" viewBox="0 0 33 34" fill="none" xmlns="http://www.w3.org/2000/svg">
<g filter="url(#filter0_d_740_130)">
<circle cx="16.5496" cy="11.2124" r="7.89304" fill="#F53838"/>
</g>
<path d="M16.7716 3.31934C12.4029 3.31934 8.86157 6.85313 8.86157 11.2124C8.86157 15.5717 12.4029 19.1055 16.7716 19.1055C21.1402 19.1055 24.6816 15.5717 24.6816 11.2124C24.6816 6.85313 21.1402 3.31934 16.7716 3.31934ZM19.9891 9.78508C19.9924 9.8525 19.9933 9.91992 19.9933 9.98569C19.9933 12.0412 18.4269 14.4099 15.5612 14.4099C14.7144 14.4113 13.8852 14.1686 13.1733 13.7111C13.2945 13.7259 13.4189 13.7316 13.545 13.7316C14.275 13.7316 14.9465 13.4841 15.4796 13.0665C15.1547 13.0601 14.8399 12.9527 14.5791 12.7594C14.3183 12.566 14.1244 12.2963 14.0245 11.9877C14.2578 12.032 14.4981 12.0227 14.7273 11.9606C14.3747 11.8895 14.0576 11.6988 13.8298 11.421C13.602 11.1431 13.4775 10.7952 13.4774 10.4363V10.4173C13.6875 10.5333 13.9281 10.604 14.1835 10.6122C13.8529 10.3926 13.6189 10.0553 13.5293 9.66926C13.4397 9.28321 13.5013 8.87758 13.7015 8.53534C14.0928 9.0155 14.5809 9.4083 15.134 9.68831C15.6871 9.96832 16.293 10.1293 16.9125 10.1608C16.8337 9.82726 16.8676 9.47709 17.0089 9.16474C17.1502 8.85238 17.3909 8.59535 17.6936 8.43361C17.9964 8.27186 18.3442 8.21446 18.6831 8.27032C19.0219 8.32619 19.3327 8.4922 19.5673 8.74253C19.9159 8.6737 20.2503 8.54607 20.556 8.36515C20.4398 8.72538 20.1965 9.03127 19.8713 9.22598C20.1802 9.18886 20.4818 9.10601 20.7661 8.98015C20.5572 9.2925 20.2941 9.56509 19.9891 9.78508V9.78508Z" fill="white"/>
<defs>
<filter id="filter0_d_740_130" x="0.199694" y="0.970208" width="32.6998" height="32.6998" filterUnits="userSpaceOnUse" color-interpolation-filters="sRGB">
<feFlood flood-opacity="0" result="BackgroundImageFix"/>
<feColorMatrix in="SourceAlpha" type="matrix" values="0 0 0 0 0 0 0 0 0 0 0 0 0 0 0 0 0 0 127 0" result="hardAlpha"/>
<feOffset dy="6.10773"/>
<feGaussianBlur stdDeviation="4.22843"/>
<feColorMatrix type="matrix" values="0 0 0 0 0.0658854 0 0 0 0 0.0730469 0 0 0 0 0.1375 0 0 0 0.08 0"/>
<feBlend mode="normal" in2="BackgroundImageFix" result="effect1_dropShadow_740_130"/>
<feBlend mode="normal" in="SourceGraphic" in2="effect1_dropShadow_740_130" result="shape"/>
</filter>
</defs>
</svg>
